<svg xmlns="http://www.w3.org/2000/svg" width="194" height="80" viewBox="0 0 194 80" fill="none"><path d="M50.0086 50H53.6975V43.9347L55.9546 41.2699L62.0299 50H66.4646L58.52 38.7741L66.395 29.6364H61.8907L53.9461 38.9929H53.6975V29.6364H50.0086V50ZM74.439 50.2983C77.9987 50.2983 80.4447 48.5582 81.0811 45.9034L77.7203 45.5256C77.233 46.8182 76.0399 47.4943 74.4887 47.4943C72.162 47.4943 70.6208 45.9631 70.591 43.348H81.2302V42.2443C81.2302 36.8849 78.0086 34.5284 74.2501 34.5284C69.8751 34.5284 67.0214 37.7401 67.0214 42.4531C67.0214 47.2457 69.8353 50.2983 74.439 50.2983ZM70.6009 40.9219C70.7103 38.973 72.1521 37.3324 74.2998 37.3324C76.368 37.3324 77.76 38.8438 77.7799 40.9219H70.6009ZM86.075 55.7273C88.879 55.7273 90.4997 54.2855 91.3648 51.8494L97.4997 34.7472L93.6517 34.7273L90.1219 46.2614H89.9628L86.4429 34.7273H82.6247L88.1631 50.3182L87.8549 51.1435C87.1887 52.8835 86.1347 53.0028 84.5637 52.5455L83.7284 55.3494C84.2156 55.5483 85.0906 55.7273 86.075 55.7273ZM100.157 29.6364V50H103.697V35.9801H103.886L109.514 49.9403H112.158L117.786 36.0099H117.975V50H121.515V29.6364H117.001L110.955 44.392H110.717L104.671 29.6364H100.157ZM129.768 50.3082C132.164 50.3082 133.596 49.1847 134.252 47.902H134.372V50H137.832V39.7784C137.832 35.7415 134.541 34.5284 131.627 34.5284C128.416 34.5284 125.95 35.9602 125.154 38.7443L128.515 39.2216C128.873 38.1776 129.887 37.2827 131.647 37.2827C133.318 37.2827 134.232 38.1378 134.232 39.6392V39.6989C134.232 40.733 133.149 40.7827 130.454 41.071C127.491 41.3892 124.657 42.2741 124.657 45.7145C124.657 48.7173 126.854 50.3082 129.768 50.3082ZM130.703 47.6634C129.201 47.6634 128.127 46.9773 128.127 45.6548C128.127 44.2727 129.33 43.696 130.941 43.4673C131.886 43.3381 133.775 43.0994 134.242 42.7216V44.5213C134.242 46.2216 132.87 47.6634 130.703 47.6634ZM153.522 38.7642C153.025 36.179 150.957 34.5284 147.377 34.5284C143.698 34.5284 141.193 36.3381 141.203 39.1619C141.193 41.3892 142.565 42.8608 145.498 43.4673L148.103 44.0142C149.505 44.3224 150.161 44.8892 150.161 45.7543C150.161 46.7983 149.028 47.5838 147.318 47.5838C145.667 47.5838 144.593 46.8679 144.285 45.4957L140.775 45.8338C141.222 48.6378 143.579 50.2983 147.328 50.2983C151.146 50.2983 153.84 48.3196 153.85 45.4261C153.84 43.2486 152.438 41.9162 149.555 41.2898L146.95 40.733C145.399 40.3849 144.782 39.848 144.792 38.9631C144.782 37.929 145.926 37.2131 147.427 37.2131C149.087 37.2131 149.962 38.1179 150.241 39.1222L153.522 38.7642ZM164.445 34.7273H161.432V31.0682H157.832V34.7273H155.665V37.5114H157.832V46.0028C157.813 48.8764 159.901 50.2884 162.605 50.2088C163.629 50.179 164.335 49.9801 164.723 49.8509L164.117 47.0369C163.918 47.0866 163.51 47.1761 163.063 47.1761C162.158 47.1761 161.432 46.858 161.432 45.4062V37.5114H164.445V34.7273ZM174.052 50.2983C177.612 50.2983 180.058 48.5582 180.694 45.9034L177.334 45.5256C176.846 46.8182 175.653 47.4943 174.102 47.4943C171.775 47.4943 170.234 45.9631 170.204 43.348H180.843V42.2443C180.843 36.8849 177.622 34.5284 173.863 34.5284C169.488 34.5284 166.635 37.7401 166.635 42.4531C166.635 47.2457 169.449 50.2983 174.052 50.2983ZM170.214 40.9219C170.324 38.973 171.765 37.3324 173.913 37.3324C175.981 37.3324 177.373 38.8438 177.393 40.9219H170.214ZM183.889 50H187.488V41.0213C187.488 39.0824 188.95 37.7102 190.928 37.7102C191.535 37.7102 192.291 37.8196 192.599 37.919V34.608C192.271 34.5483 191.704 34.5085 191.306 34.5085C189.556 34.5085 188.095 35.5028 187.538 37.2727H187.379V34.7273H183.889V50Z" fill="#0F9964"></path><path d="M17.0002 59C17 53 17.0001 28.5 17.0002 21C20.0849 21 20.7978 24.0027 24.1211 25C25.5183 25.4193 27.4163 25.6629 29.1219 25.8044C31.5246 26.0038 33.6199 27.7246 33.8334 30.1261C35.4723 48.5644 24.6713 59 17.0002 59Z" fill="#0F9964"></path><path d="M16.9999 59C17.0001 53 17 28.5 16.9999 21C13.9152 21 13.2023 24.0027 9.879 25C8.4818 25.4193 6.5838 25.6629 4.87817 25.8044C2.4755 26.0038 0.380145 27.7246 0.16669 30.1261C-1.47222 48.5644 9.32882 59 16.9999 59Z" fill="#FFD04C"></path><circle cx="17" cy="40" r="9" fill="white"></circle><path d="M14 39.7273L16.1875 42L21 37" stroke="#0F9964" stroke-width="2" stroke-linecap="round" stroke-linejoin="round"></path></svg>